<mxfile host="app.diagrams.net" modified="2022-10-09T09:09:42.737Z" agent="5.0 (Macintosh; Intel Mac OS X 10_15_7) AppleWebKit/537.36 (KHTML, like Gecko) Chrome/105.0.0.0 Safari/537.36" etag="Zki0d4ZOttT2POkIUONv" version="20.3.7" type="github">
  <diagram id="F-M33VOVVg4Excp3OvD9" name="第 1 页">
    <mxGraphModel dx="2189" dy="712" grid="1" gridSize="10" guides="1" tooltips="1" connect="1" arrows="1" fold="1" page="1" pageScale="1" pageWidth="827" pageHeight="1169" math="0" shadow="0">
      <root>
        <mxCell id="0" />
        <mxCell id="1" parent="0" />
        <mxCell id="xn903BgjvgAiiY508LES-25" value="" style="edgeStyle=none;rounded=0;orthogonalLoop=1;jettySize=auto;html=1;startArrow=none;startFill=0;" edge="1" parent="1" source="xn903BgjvgAiiY508LES-23" target="xn903BgjvgAiiY508LES-24">
          <mxGeometry relative="1" as="geometry" />
        </mxCell>
        <mxCell id="xn903BgjvgAiiY508LES-23" value="开始" style="strokeWidth=2;html=1;shape=mxgraph.flowchart.start_1;whiteSpace=wrap;" vertex="1" parent="1">
          <mxGeometry x="350" y="50" width="100" height="40" as="geometry" />
        </mxCell>
        <mxCell id="xn903BgjvgAiiY508LES-29" value="" style="edgeStyle=none;rounded=0;orthogonalLoop=1;jettySize=auto;html=1;startArrow=none;startFill=0;" edge="1" parent="1" source="xn903BgjvgAiiY508LES-24" target="xn903BgjvgAiiY508LES-28">
          <mxGeometry relative="1" as="geometry" />
        </mxCell>
        <mxCell id="xn903BgjvgAiiY508LES-46" value="" style="rounded=0;orthogonalLoop=1;jettySize=auto;html=1;startArrow=none;startFill=0;endArrow=classic;endFill=1;entryX=0.5;entryY=0;entryDx=0;entryDy=0;" edge="1" parent="1" source="xn903BgjvgAiiY508LES-24" target="xn903BgjvgAiiY508LES-45">
          <mxGeometry relative="1" as="geometry" />
        </mxCell>
        <mxCell id="xn903BgjvgAiiY508LES-24" value="客户端建立与服务端的quic连接" style="whiteSpace=wrap;html=1;strokeWidth=2;" vertex="1" parent="1">
          <mxGeometry x="340" y="130" width="120" height="40" as="geometry" />
        </mxCell>
        <mxCell id="xn903BgjvgAiiY508LES-40" value="" style="edgeStyle=none;rounded=0;orthogonalLoop=1;jettySize=auto;html=1;startArrow=none;startFill=0;" edge="1" parent="1" source="xn903BgjvgAiiY508LES-28" target="xn903BgjvgAiiY508LES-39">
          <mxGeometry relative="1" as="geometry" />
        </mxCell>
        <mxCell id="xn903BgjvgAiiY508LES-28" value="创建保活流" style="whiteSpace=wrap;html=1;strokeWidth=2;" vertex="1" parent="1">
          <mxGeometry x="590" y="240" width="120" height="40" as="geometry" />
        </mxCell>
        <mxCell id="xn903BgjvgAiiY508LES-73" style="edgeStyle=orthogonalEdgeStyle;rounded=0;orthogonalLoop=1;jettySize=auto;html=1;exitX=0.5;exitY=1;exitDx=0;exitDy=0;entryX=0.5;entryY=0;entryDx=0;entryDy=0;entryPerimeter=0;startArrow=none;startFill=0;endArrow=classic;endFill=1;" edge="1" parent="1" source="xn903BgjvgAiiY508LES-35" target="xn903BgjvgAiiY508LES-70">
          <mxGeometry relative="1" as="geometry" />
        </mxCell>
        <mxCell id="xn903BgjvgAiiY508LES-35" value="" style="rounded=1;whiteSpace=wrap;html=1;absoluteArcSize=1;arcSize=14;strokeWidth=2;fillStyle=auto;fillColor=none;" vertex="1" parent="1">
          <mxGeometry x="560" y="220" width="190" height="250" as="geometry" />
        </mxCell>
        <mxCell id="xn903BgjvgAiiY508LES-42" value="" style="edgeStyle=none;rounded=0;orthogonalLoop=1;jettySize=auto;html=1;startArrow=none;startFill=0;" edge="1" parent="1" source="xn903BgjvgAiiY508LES-39" target="xn903BgjvgAiiY508LES-41">
          <mxGeometry relative="1" as="geometry" />
        </mxCell>
        <mxCell id="xn903BgjvgAiiY508LES-47" value="Yes" style="edgeLabel;html=1;align=center;verticalAlign=middle;resizable=0;points=[];" vertex="1" connectable="0" parent="xn903BgjvgAiiY508LES-42">
          <mxGeometry x="-0.2667" y="-1" relative="1" as="geometry">
            <mxPoint as="offset" />
          </mxGeometry>
        </mxCell>
        <mxCell id="xn903BgjvgAiiY508LES-39" value="达到保活时间？" style="strokeWidth=2;html=1;shape=mxgraph.flowchart.decision;whiteSpace=wrap;fillStyle=auto;fillColor=none;" vertex="1" parent="1">
          <mxGeometry x="597.5" y="310" width="105" height="70" as="geometry" />
        </mxCell>
        <mxCell id="xn903BgjvgAiiY508LES-44" style="edgeStyle=orthogonalEdgeStyle;rounded=0;orthogonalLoop=1;jettySize=auto;html=1;exitX=0;exitY=0.5;exitDx=0;exitDy=0;entryX=0.5;entryY=0;entryDx=0;entryDy=0;entryPerimeter=0;startArrow=none;startFill=0;endArrow=classic;endFill=1;" edge="1" parent="1" source="xn903BgjvgAiiY508LES-41" target="xn903BgjvgAiiY508LES-39">
          <mxGeometry relative="1" as="geometry">
            <Array as="points">
              <mxPoint x="570" y="430" />
              <mxPoint x="570" y="300" />
              <mxPoint x="650" y="300" />
            </Array>
          </mxGeometry>
        </mxCell>
        <mxCell id="xn903BgjvgAiiY508LES-41" value="发送保活PING" style="whiteSpace=wrap;html=1;fillColor=none;strokeWidth=2;fillStyle=auto;" vertex="1" parent="1">
          <mxGeometry x="590" y="410" width="120" height="40" as="geometry" />
        </mxCell>
        <mxCell id="xn903BgjvgAiiY508LES-49" value="" style="edgeStyle=none;rounded=0;orthogonalLoop=1;jettySize=auto;html=1;startArrow=none;startFill=0;endArrow=classic;endFill=1;" edge="1" parent="1" source="xn903BgjvgAiiY508LES-45" target="xn903BgjvgAiiY508LES-48">
          <mxGeometry relative="1" as="geometry" />
        </mxCell>
        <mxCell id="xn903BgjvgAiiY508LES-50" value="yes" style="edgeLabel;html=1;align=center;verticalAlign=middle;resizable=0;points=[];" vertex="1" connectable="0" parent="xn903BgjvgAiiY508LES-49">
          <mxGeometry x="-0.12" y="-1" relative="1" as="geometry">
            <mxPoint as="offset" />
          </mxGeometry>
        </mxCell>
        <mxCell id="xn903BgjvgAiiY508LES-45" value="大批量小文件&lt;br&gt;下载任务？" style="rhombus;whiteSpace=wrap;html=1;strokeWidth=2;" vertex="1" parent="1">
          <mxGeometry x="170" y="200" width="120" height="80" as="geometry" />
        </mxCell>
        <mxCell id="xn903BgjvgAiiY508LES-52" value="" style="edgeStyle=none;rounded=0;orthogonalLoop=1;jettySize=auto;html=1;startArrow=none;startFill=0;endArrow=classic;endFill=1;" edge="1" parent="1" source="xn903BgjvgAiiY508LES-48" target="xn903BgjvgAiiY508LES-51">
          <mxGeometry relative="1" as="geometry" />
        </mxCell>
        <mxCell id="xn903BgjvgAiiY508LES-54" value="" style="edgeStyle=none;rounded=0;orthogonalLoop=1;jettySize=auto;html=1;startArrow=none;startFill=0;endArrow=classic;endFill=1;" edge="1" parent="1" source="xn903BgjvgAiiY508LES-48" target="xn903BgjvgAiiY508LES-53">
          <mxGeometry relative="1" as="geometry" />
        </mxCell>
        <mxCell id="xn903BgjvgAiiY508LES-48" value="加载任务信息" style="whiteSpace=wrap;html=1;strokeWidth=2;" vertex="1" parent="1">
          <mxGeometry x="170" y="340" width="120" height="40" as="geometry" />
        </mxCell>
        <mxCell id="xn903BgjvgAiiY508LES-56" value="" style="edgeStyle=none;rounded=0;orthogonalLoop=1;jettySize=auto;html=1;startArrow=none;startFill=0;endArrow=classic;endFill=1;" edge="1" parent="1" source="xn903BgjvgAiiY508LES-51" target="xn903BgjvgAiiY508LES-55">
          <mxGeometry relative="1" as="geometry" />
        </mxCell>
        <mxCell id="xn903BgjvgAiiY508LES-61" value="" style="edgeStyle=none;rounded=0;orthogonalLoop=1;jettySize=auto;html=1;startArrow=none;startFill=0;endArrow=classic;endFill=1;" edge="1" parent="1" source="xn903BgjvgAiiY508LES-51" target="xn903BgjvgAiiY508LES-60">
          <mxGeometry relative="1" as="geometry" />
        </mxCell>
        <mxCell id="xn903BgjvgAiiY508LES-51" value="创建控制流" style="whiteSpace=wrap;html=1;strokeWidth=2;" vertex="1" parent="1">
          <mxGeometry x="40" y="410" width="120" height="40" as="geometry" />
        </mxCell>
        <mxCell id="xn903BgjvgAiiY508LES-67" value="" style="edgeStyle=none;rounded=0;orthogonalLoop=1;jettySize=auto;html=1;startArrow=none;startFill=0;endArrow=classic;endFill=1;" edge="1" parent="1" source="xn903BgjvgAiiY508LES-53" target="xn903BgjvgAiiY508LES-66">
          <mxGeometry relative="1" as="geometry" />
        </mxCell>
        <mxCell id="xn903BgjvgAiiY508LES-53" value="创建N个数据流，&lt;br&gt;启动对N个文件的下载" style="whiteSpace=wrap;html=1;strokeWidth=2;" vertex="1" parent="1">
          <mxGeometry x="320" y="410" width="120" height="40" as="geometry" />
        </mxCell>
        <mxCell id="xn903BgjvgAiiY508LES-71" style="edgeStyle=orthogonalEdgeStyle;rounded=0;orthogonalLoop=1;jettySize=auto;html=1;exitX=0.5;exitY=1;exitDx=0;exitDy=0;entryX=0.5;entryY=0;entryDx=0;entryDy=0;entryPerimeter=0;startArrow=none;startFill=0;endArrow=classic;endFill=1;" edge="1" parent="1" source="xn903BgjvgAiiY508LES-55" target="xn903BgjvgAiiY508LES-70">
          <mxGeometry relative="1" as="geometry">
            <Array as="points">
              <mxPoint y="630" />
              <mxPoint x="540" y="630" />
            </Array>
          </mxGeometry>
        </mxCell>
        <mxCell id="xn903BgjvgAiiY508LES-55" value="向服务端发送小文件预加载命令" style="whiteSpace=wrap;html=1;strokeWidth=2;" vertex="1" parent="1">
          <mxGeometry x="-60" y="500" width="120" height="40" as="geometry" />
        </mxCell>
        <mxCell id="xn903BgjvgAiiY508LES-57" value="启动已预加载完成的文件下载任务" style="whiteSpace=wrap;html=1;strokeWidth=2;" vertex="1" parent="1">
          <mxGeometry x="320" y="560" width="120" height="40" as="geometry" />
        </mxCell>
        <mxCell id="xn903BgjvgAiiY508LES-60" value="收到小文件&lt;br&gt;预加载完成命令" style="whiteSpace=wrap;html=1;strokeWidth=2;" vertex="1" parent="1">
          <mxGeometry x="110" y="560" width="110" height="40" as="geometry" />
        </mxCell>
        <mxCell id="xn903BgjvgAiiY508LES-62" value="" style="verticalLabelPosition=bottom;verticalAlign=top;html=1;strokeWidth=2;shape=mxgraph.arrows2.arrow;dy=0.6;dx=40;notch=0;fillStyle=auto;fillColor=none;" vertex="1" parent="1">
          <mxGeometry x="240" y="565" width="70" height="30" as="geometry" />
        </mxCell>
        <mxCell id="xn903BgjvgAiiY508LES-68" style="edgeStyle=none;rounded=0;orthogonalLoop=1;jettySize=auto;html=1;exitX=0.5;exitY=1;exitDx=0;exitDy=0;entryX=0.5;entryY=0;entryDx=0;entryDy=0;startArrow=none;startFill=0;endArrow=classic;endFill=1;" edge="1" parent="1" source="xn903BgjvgAiiY508LES-66" target="xn903BgjvgAiiY508LES-57">
          <mxGeometry relative="1" as="geometry" />
        </mxCell>
        <mxCell id="xn903BgjvgAiiY508LES-69" value="yes" style="edgeLabel;html=1;align=center;verticalAlign=middle;resizable=0;points=[];" vertex="1" connectable="0" parent="xn903BgjvgAiiY508LES-68">
          <mxGeometry x="-0.2" y="1" relative="1" as="geometry">
            <mxPoint as="offset" />
          </mxGeometry>
        </mxCell>
        <mxCell id="xn903BgjvgAiiY508LES-72" style="edgeStyle=orthogonalEdgeStyle;rounded=0;orthogonalLoop=1;jettySize=auto;html=1;exitX=1;exitY=0.5;exitDx=0;exitDy=0;entryX=0.5;entryY=0;entryDx=0;entryDy=0;entryPerimeter=0;startArrow=none;startFill=0;endArrow=classic;endFill=1;" edge="1" parent="1" source="xn903BgjvgAiiY508LES-66" target="xn903BgjvgAiiY508LES-70">
          <mxGeometry relative="1" as="geometry" />
        </mxCell>
        <mxCell id="xn903BgjvgAiiY508LES-66" value="剩余小文件&lt;br&gt;下载任务" style="rhombus;whiteSpace=wrap;html=1;strokeWidth=2;" vertex="1" parent="1">
          <mxGeometry x="330" y="470" width="100" height="50" as="geometry" />
        </mxCell>
        <mxCell id="xn903BgjvgAiiY508LES-70" value="" style="strokeWidth=2;html=1;shape=mxgraph.flowchart.terminator;whiteSpace=wrap;fillStyle=auto;fillColor=none;" vertex="1" parent="1">
          <mxGeometry x="490" y="700" width="100" height="60" as="geometry" />
        </mxCell>
      </root>
    </mxGraphModel>
  </diagram>
</mxfile>
